<svg width="97" height="100" viewBox="0 0 97 100" fill="none" xmlns="http://www.w3.org/2000/svg">
<path d="M0 0H96.242V100H0V0Z" fill="#F7DF1E"/>
<path d="M25.3058 83.5673L32.6709 78.936C34.0917 81.5536 35.3843 83.7684 38.4846 83.7684C41.4565 83.7684 43.3302 82.5605 43.3302 77.862V45.9097H52.3745V77.9949C52.3745 87.7282 46.8835 92.1586 38.8724 92.1586C31.6373 92.1586 27.4374 88.2651 25.3056 83.5665" fill="black"/>
<path d="M57.2868 82.5605L64.651 78.1302C66.5896 81.4197 69.1091 83.836 73.5665 83.836C77.314 83.836 79.7037 81.8892 79.7037 79.2041C79.7037 75.9821 77.2489 74.8408 73.1142 72.9619L70.8537 71.9543C64.3284 69.0684 59.9998 65.4437 59.9998 57.7911C59.9998 50.7429 65.168 45.3726 73.2437 45.3726C78.9935 45.3726 83.1281 47.4537 86.0995 52.891L79.0577 57.5895C77.5071 54.7033 75.8279 53.5624 73.2439 53.5624C70.5951 53.5624 68.9153 55.3076 68.9153 57.5895C68.9153 60.4089 70.5951 61.5503 74.4709 63.2957L76.7318 64.3025C84.4197 67.7262 88.7483 71.2164 88.7483 79.0698C88.7483 87.5283 82.3527 92.1595 73.7605 92.1595C65.3621 92.1595 59.9353 87.9979 57.287 82.5605" fill="black"/>
</svg>
